STARTFONT 2.1
FONT -Monotype-Book Antiqua-Bold-R-Normal--14-100-100-100-P-68-iso8859-9
SIZE 10 100 100
FONTBOUNDINGBOX 17 18 -2 -4

STARTPROPERTIES 24
FOUNDRY "Monotype"
FAMILY_NAME "Book Antiqua"
WEIGHT_NAME "Bold"
SLANT "R"
SETWIDTH_NAME "Normal"
ADD_STYLE_NAME ""
PIXEL_SIZE 14
POINT_SIZE 100
RESOLUTION_X 100
RESOLUTION_Y 100
SPACING "P"
AVERAGE_WIDTH 68
CHARSET_REGISTRY "iso8859"
CHARSET_ENCODING "9"
FACE_NAME "Book Antiqua Bold ISO Latin5"
_DEC_DEVICE_FONTNAMES "PS=bookantiqua-b-lat5"
COPYRIGHT "Copyright (c) 1994 Monotype Typography Ltd."
CAP_HEIGHT 12
X_HEIGHT 8
WEIGHT 10
QUAD_WIDTH 9
DEFAULT_CHAR 160
FONT_DESCENT 4
FONT_ASCENT 14
ENDPROPERTIES

CHARS 191

STARTCHAR space
ENCODING 32
SWIDTH 250 0
DWIDTH 4 0
BBX 0 0 0 0
BITMAP
ENDCHAR

STARTCHAR exclam
ENCODING 33
SWIDTH 278 0
DWIDTH 4 0
BBX 2 11 1 0
BITMAP
C0
C0
C0
C0
C0
C0
C0
C0
00
C0
C0
ENDCHAR

STARTCHAR quotedbl
ENCODING 34
SWIDTH 402 0
DWIDTH 6 0
BBX 5 5 1 5
BITMAP
D8
D8
D8
48
48
ENDCHAR

STARTCHAR numbersign
ENCODING 35
SWIDTH 606 0
DWIDTH 8 0
BBX 8 10 0 0
BITMAP
12
12
12
7F
24
24
FE
48
48
48
ENDCHAR

STARTCHAR dollar
ENCODING 36
SWIDTH 500 0
DWIDTH 7 0
BBX 6 12 1 -1
BITMAP
10
3C
54
D4
D0
F8
7C
2C
AC
A8
F0
20
ENDCHAR

STARTCHAR percent
ENCODING 37
SWIDTH 889 0
DWIDTH 12 0
BBX 11 10 1 0
BITMAP
6100
B100
B200
B200
B4C0
6560
0960
0960
1160
10C0
ENDCHAR

STARTCHAR ampersand
ENCODING 38
SWIDTH 833 0
DWIDTH 12 0
BBX 11 10 1 0
BITMAP
3800
6C00
6C00
3800
33C0
7900
CD00
C600
E760
7DC0
ENDCHAR

STARTCHAR quoteright
ENCODING 39
SWIDTH 278 0
DWIDTH 4 0
BBX 3 4 0 7
BITMAP
60
60
40
80
ENDCHAR

STARTCHAR parenleft
ENCODING 40
SWIDTH 333 0
DWIDTH 5 0
BBX 4 15 1 -4
BITMAP
10
20
60
40
C0
C0
C0
C0
C0
C0
C0
40
60
20
10
ENDCHAR

STARTCHAR parenright
ENCODING 41
SWIDTH 333 0
DWIDTH 5 0
BBX 4 15 1 -4
BITMAP
80
40
60
20
30
30
30
30
30
30
30
20
60
40
80
ENDCHAR

STARTCHAR asterisk
ENCODING 42
SWIDTH 444 0
DWIDTH 6 0
BBX 5 5 1 6
BITMAP
20
A8
70
A8
20
ENDCHAR

STARTCHAR plus
ENCODING 43
SWIDTH 606 0
DWIDTH 8 0
BBX 7 7 1 1
BITMAP
10
10
10
FE
10
10
10
ENDCHAR

STARTCHAR comma
ENCODING 44
SWIDTH 250 0
DWIDTH 4 0
BBX 3 4 0 -2
BITMAP
60
60
40
80
ENDCHAR

STARTCHAR minus
ENCODING 45
SWIDTH 606 0
DWIDTH 8 0
BBX 7 1 1 4
BITMAP
FE
ENDCHAR

STARTCHAR period
ENCODING 46
SWIDTH 250 0
DWIDTH 4 0
BBX 2 2 1 0
BITMAP
C0
C0
ENDCHAR

STARTCHAR slash
ENCODING 47
SWIDTH 296 0
DWIDTH 4 0
BBX 8 15 -2 -4
BITMAP
03
02
06
04
0C
08
08
18
10
30
20
20
60
40
C0
ENDCHAR

STARTCHAR zero
ENCODING 48
SWIDTH 500 0
DWIDTH 7 0
BBX 6 10 1 0
BITMAP
30
48
CC
CC
CC
CC
CC
CC
48
30
ENDCHAR

STARTCHAR one
ENCODING 49
SWIDTH 500 0
DWIDTH 7 0
BBX 6 10 1 0
BITMAP
10
30
70
B0
30
30
30
30
30
FC
ENDCHAR

STARTCHAR two
ENCODING 50
SWIDTH 500 0
DWIDTH 7 0
BBX 6 10 1 0
BITMAP
78
DC
8C
0C
0C
18
30
60
FC
FC
ENDCHAR

STARTCHAR three
ENCODING 51
SWIDTH 500 0
DWIDTH 7 0
BBX 6 10 1 0
BITMAP
78
CC
8C
18
38
0C
0C
8C
CC
78
ENDCHAR

STARTCHAR four
ENCODING 52
SWIDTH 500 0
DWIDTH 7 0
BBX 7 10 0 0
BITMAP
08
18
38
58
58
98
FE
18
18
7E
ENDCHAR

STARTCHAR five
ENCODING 53
SWIDTH 500 0
DWIDTH 7 0
BBX 6 10 1 0
BITMAP
FC
FC
80
B8
DC
8C
0C
8C
C8
70
ENDCHAR

STARTCHAR six
ENCODING 54
SWIDTH 500 0
DWIDTH 7 0
BBX 6 10 1 0
BITMAP
18
20
60
40
F8
CC
CC
CC
CC
78
ENDCHAR

STARTCHAR seven
ENCODING 55
SWIDTH 500 0
DWIDTH 7 0
BBX 7 10 0 0
BITMAP
7E
FE
84
0C
08
18
30
30
60
60
ENDCHAR

STARTCHAR eight
ENCODING 56
SWIDTH 500 0
DWIDTH 7 0
BBX 6 10 1 0
BITMAP
78
84
C4
E4
78
78
9C
8C
84
78
ENDCHAR

STARTCHAR nine
ENCODING 57
SWIDTH 500 0
DWIDTH 7 0
BBX 6 10 1 0
BITMAP
78
CC
CC
CC
CC
7C
08
18
10
60
ENDCHAR

STARTCHAR colon
ENCODING 58
SWIDTH 250 0
DWIDTH 4 0
BBX 2 7 1 0
BITMAP
C0
C0
00
00
00
C0
C0
ENDCHAR

STARTCHAR semicolon
ENCODING 59
SWIDTH 250 0
DWIDTH 4 0
BBX 3 9 0 -2
BITMAP
60
60
00
00
00
60
60
40
80
ENDCHAR

STARTCHAR less
ENCODING 60
SWIDTH 606 0
DWIDTH 8 0
BBX 7 7 1 1
BITMAP
02
0E
38
E0
38
0E
02
ENDCHAR

STARTCHAR equal
ENCODING 61
SWIDTH 606 0
DWIDTH 8 0
BBX 7 3 1 3
BITMAP
FE
00
FE
ENDCHAR

STARTCHAR greater
ENCODING 62
SWIDTH 606 0
DWIDTH 8 0
BBX 7 7 1 1
BITMAP
80
E0
38
0E
38
E0
80
ENDCHAR

STARTCHAR question
ENCODING 63
SWIDTH 444 0
DWIDTH 6 0
BBX 5 11 1 0
BITMAP
70
D8
98
18
18
30
60
60
00
60
60
ENDCHAR

STARTCHAR at
ENCODING 64
SWIDTH 747 0
DWIDTH 10 0
BBX 11 12 0 -2
BITMAP
0E00
3180
4040
4740
8D20
8920
9A20
9EC0
5B20
4040
3180
0E00
ENDCHAR

STARTCHAR A
ENCODING 65
SWIDTH 778 0
DWIDTH 11 0
BBX 9 10 1 0
BITMAP
0800
0800
1C00
1C00
2600
2600
3E00
4300
4300
E780
ENDCHAR

STARTCHAR B
ENCODING 66
SWIDTH 667 0
DWIDTH 9 0
BBX 8 10 1 0
BITMAP
FE
63
63
62
7C
62
63
63
63
FE
ENDCHAR

STARTCHAR C
ENCODING 67
SWIDTH 722 0
DWIDTH 10 0
BBX 9 10 1 0
BITMAP
1F80
6080
6080
C000
C000
C000
C000
6000
6080
1F00
ENDCHAR

STARTCHAR D
ENCODING 68
SWIDTH 833 0
DWIDTH 12 0
BBX 10 10 1 0
BITMAP
FE00
6180
6180
60C0
60C0
60C0
60C0
6180
6180
FE00
ENDCHAR

STARTCHAR E
ENCODING 69
SWIDTH 611 0
DWIDTH 9 0
BBX 8 10 1 0
BITMAP
FF
61
61
64
7C
64
60
61
61
FF
ENDCHAR

STARTCHAR F
ENCODING 70
SWIDTH 556 0
DWIDTH 9 0
BBX 8 10 1 0
BITMAP
FF
61
61
64
7C
64
60
60
60
F0
ENDCHAR

STARTCHAR G
ENCODING 71
SWIDTH 833 0
DWIDTH 12 0
BBX 11 10 1 0
BITMAP
1FC0
6040
6040
C000
C000
C000
C3E0
60C0
60C0
1F80
ENDCHAR

STARTCHAR H
ENCODING 72
SWIDTH 833 0
DWIDTH 12 0
BBX 10 10 1 0
BITMAP
F3C0
6180
6180
6180
7F80
6180
6180
6180
6180
F3C0
ENDCHAR

STARTCHAR I
ENCODING 73
SWIDTH 389 0
DWIDTH 6 0
BBX 4 10 1 0
BITMAP
F0
60
60
60
60
60
60
60
60
F0
ENDCHAR

STARTCHAR J
ENCODING 74
SWIDTH 389 0
DWIDTH 5 0
BBX 5 13 0 -3
BITMAP
78
30
30
30
30
30
30
30
30
30
30
20
C0
ENDCHAR

STARTCHAR K
ENCODING 75
SWIDTH 778 0
DWIDTH 11 0
BBX 10 10 1 0
BITMAP
F3C0
6100
6200
6400
6800
7C00
6E00
6700
6380
F7C0
ENDCHAR

STARTCHAR L
ENCODING 76
SWIDTH 611 0
DWIDTH 9 0
BBX 8 10 1 0
BITMAP
F0
60
60
60
60
60
60
61
61
FF
ENDCHAR

STARTCHAR M
ENCODING 77
SWIDTH 1000 0
DWIDTH 15 0
BBX 13 10 1 0
BITMAP
E038
7070
7070
78B0
58B0
5D30
4D30
4E30
4630
E678
ENDCHAR

STARTCHAR N
ENCODING 78
SWIDTH 833 0
DWIDTH 12 0
BBX 10 10 1 0
BITMAP
C1C0
6080
7080
7880
5C80
4E80
4780
4380
4180
E080
ENDCHAR

STARTCHAR O
ENCODING 79
SWIDTH 833 0
DWIDTH 12 0
BBX 10 10 1 0
BITMAP
1E00
6180
6180
C0C0
C0C0
C0C0
C0C0
6180
6180
1E00
ENDCHAR

STARTCHAR P
ENCODING 80
SWIDTH 611 0
DWIDTH 9 0
BBX 8 10 1 0
BITMAP
FE
63
63
63
6E
60
60
60
60
F0
ENDCHAR

STARTCHAR Q
ENCODING 81
SWIDTH 833 0
DWIDTH 12 0
BBX 11 12 1 -2
BITMAP
1E00
6180
6180
C0C0
C0C0
C0C0
C0C0
6180
6180
1E00
0E00
1BE0
ENDCHAR

STARTCHAR R
ENCODING 82
SWIDTH 722 0
DWIDTH 10 0
BBX 9 10 1 0
BITMAP
FE00
6300
6300
6300
6600
6C00
6C00
6600
6300
F780
ENDCHAR

STARTCHAR S
ENCODING 83
SWIDTH 611 0
DWIDTH 9 0
BBX 7 10 1 0
BITMAP
3E
42
C2
C0
FC
7E
06
86
84
F8
ENDCHAR

STARTCHAR T
ENCODING 84
SWIDTH 667 0
DWIDTH 8 0
BBX 8 10 0 0
BITMAP
FF
99
99
18
18
18
18
18
18
3C
ENDCHAR

STARTCHAR U
ENCODING 85
SWIDTH 778 0
DWIDTH 11 0
BBX 10 10 1 0
BITMAP
F1C0
6080
6080
6080
6080
6080
6080
6080
3100
1E00
ENDCHAR

STARTCHAR V
ENCODING 86
SWIDTH 778 0
DWIDTH 10 0
BBX 10 10 0 0
BITMAP
F1C0
6080
6080
3100
3100
1A00
1A00
0C00
0C00
0400
ENDCHAR

STARTCHAR W
ENCODING 87
SWIDTH 1000 0
DWIDTH 14 0
BBX 15 10 0 0
BITMAP
F18E
6184
6384
62C4
32C8
34C8
3468
1C70
1830
1830
ENDCHAR

STARTCHAR X
ENCODING 88
SWIDTH 667 0
DWIDTH 8 0
BBX 8 10 0 0
BITMAP
C3
62
64
38
38
18
3C
2C
46
C7
ENDCHAR

STARTCHAR Y
ENCODING 89
SWIDTH 667 0
DWIDTH 9 0
BBX 9 10 0 0
BITMAP
E180
6100
3100
3200
1A00
0C00
0C00
0C00
0C00
1E00
ENDCHAR

STARTCHAR Z
ENCODING 90
SWIDTH 667 0
DWIDTH 10 0
BBX 8 10 1 0
BITMAP
FF
86
8C
1C
18
30
70
61
C1
FF
ENDCHAR

STARTCHAR bracketleft
ENCODING 91
SWIDTH 333 0
DWIDTH 5 0
BBX 3 15 1 -4
BITMAP
E0
C0
C0
C0
C0
C0
C0
C0
C0
C0
C0
C0
C0
C0
E0
ENDCHAR

STARTCHAR backslash
ENCODING 92
SWIDTH 606 0
DWIDTH 8 0
BBX 8 15 0 -4
BITMAP
C0
40
60
20
20
30
10
18
08
08
0C
04
06
02
03
ENDCHAR

STARTCHAR bracketright
ENCODING 93
SWIDTH 333 0
DWIDTH 5 0
BBX 3 15 1 -4
BITMAP
E0
60
60
60
60
60
60
60
60
60
60
60
60
60
E0
ENDCHAR

STARTCHAR asciicircum
ENCODING 94
SWIDTH 606 0
DWIDTH 8 0
BBX 6 6 1 4
BITMAP
30
30
78
78
CC
84
ENDCHAR

STARTCHAR underscore
ENCODING 95
SWIDTH 500 0
DWIDTH 7 0
BBX 7 1 0 -2
BITMAP
FE
ENDCHAR

STARTCHAR quoteleft
ENCODING 96
SWIDTH 278 0
DWIDTH 4 0
BBX 3 4 1 7
BITMAP
20
40
C0
C0
ENDCHAR

STARTCHAR a
ENCODING 97
SWIDTH 500 0
DWIDTH 7 0
BBX 7 7 1 0
BITMAP
78
4C
1C
6C
CC
EC
76
ENDCHAR

STARTCHAR b
ENCODING 98
SWIDTH 611 0
DWIDTH 9 0
BBX 8 11 1 0
BITMAP
20
E0
60
60
6E
77
63
63
63
72
4C
ENDCHAR

STARTCHAR c
ENCODING 99
SWIDTH 444 0
DWIDTH 7 0
BBX 6 7 1 0
BITMAP
3C
64
C4
C0
C0
E4
78
ENDCHAR

STARTCHAR d
ENCODING 100
SWIDTH 611 0
DWIDTH 9 0
BBX 8 11 1 0
BITMAP
02
0E
06
06
36
4E
C6
C6
C6
EE
77
ENDCHAR

STARTCHAR e
ENCODING 101
SWIDTH 500 0
DWIDTH 7 0
BBX 6 7 1 0
BITMAP
78
CC
CC
FC
C0
C4
78
ENDCHAR

STARTCHAR f
ENCODING 102
SWIDTH 389 0
DWIDTH 5 0
BBX 5 11 1 0
BITMAP
18
28
60
60
F8
60
60
60
60
60
F0
ENDCHAR

STARTCHAR g
ENCODING 103
SWIDTH 556 0
DWIDTH 8 0
BBX 7 11 1 -4
BITMAP
7A
CC
CC
CC
78
40
7C
C6
C6
C6
7C
ENDCHAR

STARTCHAR h
ENCODING 104
SWIDTH 611 0
DWIDTH 9 0
BBX 8 11 1 0
BITMAP
20
E0
60
60
6C
76
66
66
66
66
F7
ENDCHAR

STARTCHAR i
ENCODING 105
SWIDTH 333 0
DWIDTH 5 0
BBX 4 10 1 0
BITMAP
60
60
00
20
E0
60
60
60
60
F0
ENDCHAR

STARTCHAR j
ENCODING 106
SWIDTH 333 0
DWIDTH 5 0
BBX 4 13 0 -3
BITMAP
30
30
00
10
70
30
30
30
30
30
30
20
C0
ENDCHAR

STARTCHAR k
ENCODING 107
SWIDTH 611 0
DWIDTH 9 0
BBX 8 11 1 0
BITMAP
20
E0
60
60
60
63
64
78
6C
66
F7
ENDCHAR

STARTCHAR l
ENCODING 108
SWIDTH 333 0
DWIDTH 5 0
BBX 4 11 1 0
BITMAP
20
E0
60
60
60
60
60
60
60
60
F0
ENDCHAR

STARTCHAR m
ENCODING 109
SWIDTH 889 0
DWIDTH 13 0
BBX 12 7 1 0
BITMAP
2EC0
F760
6660
6660
6660
6660
F770
ENDCHAR

STARTCHAR n
ENCODING 110
SWIDTH 611 0
DWIDTH 9 0
BBX 8 7 1 0
BITMAP
2C
F6
66
66
66
66
F7
ENDCHAR

STARTCHAR o
ENCODING 111
SWIDTH 556 0
DWIDTH 8 0
BBX 7 7 1 0
BITMAP
38
44
C6
C6
C6
44
38
ENDCHAR

STARTCHAR p
ENCODING 112
SWIDTH 611 0
DWIDTH 9 0
BBX 8 10 1 -3
BITMAP
2C
F2
63
63
63
72
6C
60
60
F0
ENDCHAR

STARTCHAR q
ENCODING 113
SWIDTH 611 0
DWIDTH 9 0
BBX 8 10 1 -3
BITMAP
32
4E
C6
C6
C6
4E
36
06
06
0F
ENDCHAR

STARTCHAR r
ENCODING 114
SWIDTH 389 0
DWIDTH 6 0
BBX 6 7 1 0
BITMAP
2C
FC
60
60
60
60
F0
ENDCHAR

STARTCHAR s
ENCODING 115
SWIDTH 444 0
DWIDTH 6 0
BBX 5 7 1 0
BITMAP
78
C8
E0
70
38
98
F0
ENDCHAR

STARTCHAR t
ENCODING 116
SWIDTH 333 0
DWIDTH 5 0
BBX 5 9 1 0
BITMAP
20
60
F8
60
60
60
60
60
38
ENDCHAR

STARTCHAR u
ENCODING 117
SWIDTH 611 0
DWIDTH 9 0
BBX 8 7 1 0
BITMAP
22
EE
66
66
66
6E
37
ENDCHAR

STARTCHAR v
ENCODING 118
SWIDTH 556 0
DWIDTH 7 0
BBX 8 7 0 0
BITMAP
F7
62
62
34
34
18
18
ENDCHAR

STARTCHAR w
ENCODING 119
SWIDTH 833 0
DWIDTH 11 0
BBX 12 7 0 0
BITMAP
F670
6620
6620
3740
3B40
1980
1980
ENDCHAR

STARTCHAR x
ENCODING 120
SWIDTH 500 0
DWIDTH 7 0
BBX 7 7 0 0
BITMAP
E6
64
38
18
38
4C
CE
ENDCHAR

STARTCHAR y
ENCODING 121
SWIDTH 556 0
DWIDTH 7 0
BBX 8 11 0 -4
BITMAP
F7
62
62
34
34
18
18
18
10
50
60
ENDCHAR

STARTCHAR z
ENCODING 122
SWIDTH 500 0
DWIDTH 7 0
BBX 6 7 1 0
BITMAP
FC
98
30
30
60
C4
FC
ENDCHAR

STARTCHAR braceleft
ENCODING 123
SWIDTH 310 0
DWIDTH 4 0
BBX 4 15 0 -4
BITMAP
30
20
60
60
60
40
40
80
40
40
60
60
60
20
30
ENDCHAR

STARTCHAR bar
ENCODING 124
SWIDTH 606 0
DWIDTH 8 0
BBX 2 15 3 -4
BITMAP
C0
C0
C0
C0
C0
C0
C0
C0
C0
C0
C0
C0
C0
C0
C0
ENDCHAR

STARTCHAR braceright
ENCODING 125
SWIDTH 310 0
DWIDTH 4 0
BBX 4 15 0 -4
BITMAP
C0
40
60
60
60
20
20
10
20
20
60
60
60
40
C0
ENDCHAR

STARTCHAR asciitilde
ENCODING 126
SWIDTH 606 0
DWIDTH 8 0
BBX 7 2 1 4
BITMAP
7A
BC
ENDCHAR

STARTCHAR space
ENCODING 160
SWIDTH 250 0
DWIDTH 5 0
BBX 0 0 0 0
BITMAP
ENDCHAR

STARTCHAR exclamdown
ENCODING 161
SWIDTH 278 0
DWIDTH 4 0
BBX 2 11 1 -4
BITMAP
C0
C0
00
C0
C0
C0
C0
C0
C0
C0
C0
ENDCHAR

STARTCHAR cent
ENCODING 162
SWIDTH 500 0
DWIDTH 7 0
BBX 6 10 1 0
BITMAP
10
3C
74
D4
D0
D0
F4
78
10
10
ENDCHAR

STARTCHAR sterling
ENCODING 163
SWIDTH 500 0
DWIDTH 7 0
BBX 7 10 0 0
BITMAP
1E
32
60
60
FC
60
60
62
66
DC
ENDCHAR

STARTCHAR currency
ENCODING 164
SWIDTH 606 0
DWIDTH 8 0
BBX 7 7 1 2
BITMAP
BA
6C
C6
82
C6
6C
BA
ENDCHAR

STARTCHAR yen
ENCODING 165
SWIDTH 500 0
DWIDTH 9 0
BBX 9 10 0 0
BITMAP
E180
6100
3100
3200
1A00
7F80
0C00
3F00
0C00
1E00
ENDCHAR

STARTCHAR brokenbar
ENCODING 166
SWIDTH 606 0
DWIDTH 8 0
BBX 2 15 3 -4
BITMAP
C0
C0
C0
C0
C0
C0
00
00
00
C0
C0
C0
C0
C0
C0
ENDCHAR

STARTCHAR section
ENCODING 167
SWIDTH 500 0
DWIDTH 7 0
BBX 6 15 1 -4
BITMAP
7C
CC
84
E0
78
CC
84
84
84
CC
78
1C
84
CC
F8
ENDCHAR

STARTCHAR dieresis
ENCODING 168
SWIDTH 333 0
DWIDTH 5 0
BBX 5 2 0 8
BITMAP
D8
D8
ENDCHAR

STARTCHAR copyright
ENCODING 169
SWIDTH 747 0
DWIDTH 10 0
BBX 10 10 0 0
BITMAP
3F00
4080
8E40
9240
B040
B040
9240
8C40
4080
3F00
ENDCHAR

STARTCHAR ordfeminine
ENCODING 170
SWIDTH 438 0
DWIDTH 6 0
BBX 4 5 1 6
BITMAP
C0
60
A0
A0
70
ENDCHAR

STARTCHAR guillemotleft
ENCODING 171
SWIDTH 500 0
DWIDTH 7 0
BBX 6 5 1 1
BITMAP
24
48
D8
48
24
ENDCHAR

STARTCHAR logicalnot
ENCODING 172
SWIDTH 606 0
DWIDTH 8 0
BBX 7 4 1 3
BITMAP
FE
02
02
02
ENDCHAR

STARTCHAR hyphen
ENCODING 173
SWIDTH 333 0
DWIDTH 5 0
BBX 5 1 0 2
BITMAP
F8
ENDCHAR

STARTCHAR registered
ENCODING 174
SWIDTH 747 0
DWIDTH 10 0
BBX 10 10 0 0
BITMAP
3F00
4080
9C40
9A40
9A40
9C40
9A40
9B40
4080
3F00
ENDCHAR

STARTCHAR macron
ENCODING 175
SWIDTH 333 0
DWIDTH 5 0
BBX 4 1 1 8
BITMAP
F0
ENDCHAR

STARTCHAR degree
ENCODING 176
SWIDTH 396 0
DWIDTH 6 0
BBX 5 5 0 5
BITMAP
70
D8
D8
D8
70
ENDCHAR

STARTCHAR plusminus
ENCODING 177
SWIDTH 606 0
DWIDTH 8 0
BBX 7 9 1 0
BITMAP
10
10
10
FE
10
10
10
00
FE
ENDCHAR

STARTCHAR twosuperior
ENCODING 178
SWIDTH 361 0
DWIDTH 5 0
BBX 4 6 1 4
BITMAP
60
B0
30
20
40
F0
ENDCHAR

STARTCHAR threesuperior
ENCODING 179
SWIDTH 361 0
DWIDTH 5 0
BBX 4 6 1 4
BITMAP
F0
30
60
30
B0
60
ENDCHAR

STARTCHAR acute
ENCODING 180
SWIDTH 333 0
DWIDTH 5 0
BBX 3 2 1 8
BITMAP
60
80
ENDCHAR

STARTCHAR mu
ENCODING 181
SWIDTH 553 0
DWIDTH 8 0
BBX 8 9 0 -2
BITMAP
66
66
66
66
66
66
DB
C0
C0
ENDCHAR

STARTCHAR paragraph
ENCODING 182
SWIDTH 641 0
DWIDTH 9 0
BBX 8 14 1 -4
BITMAP
3F
7A
FA
FA
FA
7A
3A
0A
0A
0A
0A
0A
0A
0A
ENDCHAR

STARTCHAR periodcentered
ENCODING 183
SWIDTH 250 0
DWIDTH 4 0
BBX 2 2 1 4
BITMAP
C0
C0
ENDCHAR

STARTCHAR cedilla
ENCODING 184
SWIDTH 333 0
DWIDTH 5 0
BBX 3 3 1 -3
BITMAP
40
20
C0
ENDCHAR

STARTCHAR onesuperior
ENCODING 185
SWIDTH 361 0
DWIDTH 5 0
BBX 4 6 1 4
BITMAP
20
E0
60
60
60
F0
ENDCHAR

STARTCHAR ordmasculine
ENCODING 186
SWIDTH 488 0
DWIDTH 7 0
BBX 4 5 1 6
BITMAP
60
B0
B0
B0
60
ENDCHAR

STARTCHAR guillemotright
ENCODING 187
SWIDTH 500 0
DWIDTH 7 0
BBX 6 5 1 1
BITMAP
90
48
6C
48
90
ENDCHAR

STARTCHAR onequarter
ENCODING 188
SWIDTH 889 0
DWIDTH 12 0
BBX 11 10 1 0
BITMAP
2080
E100
6100
6200
6440
F4C0
09C0
12C0
13E0
20C0
ENDCHAR

STARTCHAR onehalf
ENCODING 189
SWIDTH 889 0
DWIDTH 12 0
BBX 11 10 1 0
BITMAP
2080
E100
6100
6200
64C0
F560
0860
1040
1080
21E0
ENDCHAR

STARTCHAR threequarters
ENCODING 190
SWIDTH 889 0
DWIDTH 12 0
BBX 11 10 1 0
BITMAP
F080
3100
6100
3200
B440
64C0
09C0
12C0
13E0
20C0
ENDCHAR

STARTCHAR questiondown
ENCODING 191
SWIDTH 444 0
DWIDTH 6 0
BBX 5 11 1 -4
BITMAP
30
30
00
30
30
60
C0
C0
C8
D8
70
ENDCHAR

STARTCHAR Agrave
ENCODING 192
SWIDTH 778 0
DWIDTH 11 0
BBX 9 13 1 0
BITMAP
3000
0800
0000
0800
0800
1C00
1C00
2600
2600
3E00
4300
4300
E780
ENDCHAR

STARTCHAR Aacute
ENCODING 193
SWIDTH 778 0
DWIDTH 11 0
BBX 9 13 1 0
BITMAP
0600
0800
0000
0800
0800
1C00
1C00
2600
2600
3E00
4300
4300
E780
ENDCHAR

STARTCHAR Acircumflex
ENCODING 194
SWIDTH 778 0
DWIDTH 11 0
BBX 9 13 1 0
BITMAP
0C00
1200
0000
0800
0800
1C00
1C00
2600
2600
3E00
4300
4300
E780
ENDCHAR

STARTCHAR Atilde
ENCODING 195
SWIDTH 778 0
DWIDTH 11 0
BBX 9 13 1 0
BITMAP
1A00
2C00
0000
0800
0800
1C00
1C00
2600
2600
3E00
4300
4300
E780
ENDCHAR

STARTCHAR Adieresis
ENCODING 196
SWIDTH 778 0
DWIDTH 11 0
BBX 9 13 1 0
BITMAP
3600
3600
0000
0800
0800
1C00
1C00
2600
2600
3E00
4300
4300
E780
ENDCHAR

STARTCHAR Aring
ENCODING 197
SWIDTH 778 0
DWIDTH 11 0
BBX 9 14 1 0
BITMAP
0800
1400
0800
0000
0800
0800
1C00
1C00
2600
2600
3E00
4300
4300
E780
ENDCHAR

STARTCHAR AE
ENCODING 198
SWIDTH 1000 0
DWIDTH 14 0
BBX 12 10 1 0
BITMAP
1FF0
0F10
0B00
1320
13E0
2320
3F00
4300
4310
E7F0
ENDCHAR

STARTCHAR Ccedilla
ENCODING 199
SWIDTH 722 0
DWIDTH 10 0
BBX 9 13 1 -3
BITMAP
1F80
6080
6080
C000
C000
C000
C000
6000
6080
1F00
0800
0400
1800
ENDCHAR

STARTCHAR Egrave
ENCODING 200
SWIDTH 611 0
DWIDTH 9 0
BBX 8 13 1 0
BITMAP
30
08
00
FF
61
61
64
7C
64
60
61
61
FF
ENDCHAR

STARTCHAR Eacute
ENCODING 201
SWIDTH 611 0
DWIDTH 9 0
BBX 8 13 1 0
BITMAP
0C
10
00
FF
61
61
64
7C
64
60
61
61
FF
ENDCHAR

STARTCHAR Ecircumflex
ENCODING 202
SWIDTH 611 0
DWIDTH 9 0
BBX 8 13 1 0
BITMAP
18
24
00
FF
61
61
64
7C
64
60
61
61
FF
ENDCHAR

STARTCHAR Edieresis
ENCODING 203
SWIDTH 611 0
DWIDTH 9 0
BBX 8 13 1 0
BITMAP
36
36
00
FF
61
61
64
7C
64
60
61
61
FF
ENDCHAR

STARTCHAR Igrave
ENCODING 204
SWIDTH 389 0
DWIDTH 6 0
BBX 4 13 1 0
BITMAP
C0
20
00
F0
60
60
60
60
60
60
60
60
F0
ENDCHAR

STARTCHAR Iacute
ENCODING 205
SWIDTH 389 0
DWIDTH 6 0
BBX 4 13 1 0
BITMAP
30
40
00
F0
60
60
60
60
60
60
60
60
F0
ENDCHAR

STARTCHAR Icircumflex
ENCODING 206
SWIDTH 389 0
DWIDTH 6 0
BBX 4 13 1 0
BITMAP
60
90
00
F0
60
60
60
60
60
60
60
60
F0
ENDCHAR

STARTCHAR Idieresis
ENCODING 207
SWIDTH 389 0
DWIDTH 6 0
BBX 5 13 1 0
BITMAP
D8
D8
00
F0
60
60
60
60
60
60
60
60
F0
ENDCHAR

STARTCHAR Gbreve
ENCODING 208
SWIDTH 833 0
DWIDTH 12 0
BBX 11 13 1 0
BITMAP
0880
0700
0000
1FC0
6040
6040
C000
C000
C000
C3E0
60C0
60C0
1F80
ENDCHAR

STARTCHAR Ntilde
ENCODING 209
SWIDTH 833 0
DWIDTH 12 0
BBX 10 13 1 0
BITMAP
0D00
1600
0000
C1C0
6080
7080
7880
5C80
4E80
4780
4380
4180
E080
ENDCHAR

STARTCHAR Ograve
ENCODING 210
SWIDTH 833 0
DWIDTH 12 0
BBX 10 13 1 0
BITMAP
1800
0400
0000
1E00
6180
6180
C0C0
C0C0
C0C0
C0C0
6180
6180
1E00
ENDCHAR

STARTCHAR Oacute
ENCODING 211
SWIDTH 833 0
DWIDTH 12 0
BBX 10 13 1 0
BITMAP
0600
0800
0000
1E00
6180
6180
C0C0
C0C0
C0C0
C0C0
6180
6180
1E00
ENDCHAR

STARTCHAR Ocircumflex
ENCODING 212
SWIDTH 833 0
DWIDTH 12 0
BBX 10 13 1 0
BITMAP
0C00
1200
0000
1E00
6180
6180
C0C0
C0C0
C0C0
C0C0
6180
6180
1E00
ENDCHAR

STARTCHAR Otilde
ENCODING 213
SWIDTH 833 0
DWIDTH 12 0
BBX 10 13 1 0
BITMAP
0D00
1600
0000
1E00
6180
6180
C0C0
C0C0
C0C0
C0C0
6180
6180
1E00
ENDCHAR

STARTCHAR Odieresis
ENCODING 214
SWIDTH 833 0
DWIDTH 12 0
BBX 10 13 1 0
BITMAP
1B00
1B00
0000
1E00
6180
6180
C0C0
C0C0
C0C0
C0C0
6180
6180
1E00
ENDCHAR

STARTCHAR multiply
ENCODING 215
SWIDTH 606 0
DWIDTH 8 0
BBX 7 6 1 2
BITMAP
C6
6C
38
38
6C
C6
ENDCHAR

STARTCHAR Oslash
ENCODING 216
SWIDTH 833 0
DWIDTH 12 0
BBX 10 10 1 0
BITMAP
1E40
6180
6180
C2C0
C4C0
C8C0
D0C0
6180
6180
9E00
ENDCHAR

STARTCHAR Ugrave
ENCODING 217
SWIDTH 778 0
DWIDTH 11 0
BBX 10 13 1 0
BITMAP
1800
0400
0000
F1C0
6080
6080
6080
6080
6080
6080
6080
3100
1E00
ENDCHAR

STARTCHAR Uacute
ENCODING 218
SWIDTH 778 0
DWIDTH 11 0
BBX 10 13 1 0
BITMAP
0600
0800
0000
F1C0
6080
6080
6080
6080
6080
6080
6080
3100
1E00
ENDCHAR

STARTCHAR Ucircumflex
ENCODING 219
SWIDTH 778 0
DWIDTH 11 0
BBX 10 13 1 0
BITMAP
0600
0900
0000
F1C0
6080
6080
6080
6080
6080
6080
6080
3100
1E00
ENDCHAR

STARTCHAR Udieresis
ENCODING 220
SWIDTH 778 0
DWIDTH 11 0
BBX 10 13 1 0
BITMAP
1B00
1B00
0000
F1C0
6080
6080
6080
6080
6080
6080
6080
3100
1E00
ENDCHAR

STARTCHAR Idotaccent
ENCODING 221
SWIDTH 389 0
DWIDTH 6 0
BBX 4 13 1 0
BITMAP
60
60
00
F0
60
60
60
60
60
60
60
60
F0
ENDCHAR

STARTCHAR Scedilla
ENCODING 222
SWIDTH 611 0
DWIDTH 9 0
BBX 7 13 1 -3
BITMAP
3E
42
C2
C0
FC
7E
06
86
84
F8
20
10
60
ENDCHAR

STARTCHAR germandbls
ENCODING 223
SWIDTH 611 0
DWIDTH 9 0
BBX 7 11 0 0
BITMAP
1C
26
62
62
64
E8
6C
66
66
62
EC
ENDCHAR

STARTCHAR agrave
ENCODING 224
SWIDTH 500 0
DWIDTH 7 0
BBX 7 10 1 0
BITMAP
60
10
00
78
4C
1C
6C
CC
EC
76
ENDCHAR

STARTCHAR aacute
ENCODING 225
SWIDTH 500 0
DWIDTH 7 0
BBX 7 10 1 0
BITMAP
18
20
00
78
4C
1C
6C
CC
EC
76
ENDCHAR

STARTCHAR acircumflex
ENCODING 226
SWIDTH 500 0
DWIDTH 7 0
BBX 7 10 1 0
BITMAP
18
24
00
78
4C
1C
6C
CC
EC
76
ENDCHAR

STARTCHAR atilde
ENCODING 227
SWIDTH 500 0
DWIDTH 7 0
BBX 7 10 1 0
BITMAP
34
58
00
78
4C
1C
6C
CC
EC
76
ENDCHAR

STARTCHAR adieresis
ENCODING 228
SWIDTH 500 0
DWIDTH 7 0
BBX 7 10 1 0
BITMAP
6C
6C
00
78
4C
1C
6C
CC
EC
76
ENDCHAR

STARTCHAR aring
ENCODING 229
SWIDTH 500 0
DWIDTH 7 0
BBX 7 11 1 0
BITMAP
10
28
10
00
78
4C
1C
6C
CC
EC
76
ENDCHAR

STARTCHAR ae
ENCODING 230
SWIDTH 778 0
DWIDTH 11 0
BBX 10 7 0 0
BITMAP
7780
5CC0
1CC0
6FC0
CC00
EC40
7780
ENDCHAR

STARTCHAR ccedilla
ENCODING 231
SWIDTH 444 0
DWIDTH 7 0
BBX 6 10 1 -3
BITMAP
3C
64
C4
C0
C0
E4
78
20
10
60
ENDCHAR

STARTCHAR egrave
ENCODING 232
SWIDTH 500 0
DWIDTH 7 0
BBX 6 10 1 0
BITMAP
60
10
00
78
CC
CC
FC
C0
C4
78
ENDCHAR

STARTCHAR eacute
ENCODING 233
SWIDTH 500 0
DWIDTH 7 0
BBX 6 10 1 0
BITMAP
18
20
00
78
CC
CC
FC
C0
C4
78
ENDCHAR

STARTCHAR ecircumflex
ENCODING 234
SWIDTH 500 0
DWIDTH 7 0
BBX 6 10 1 0
BITMAP
30
48
00
78
CC
CC
FC
C0
C4
78
ENDCHAR

STARTCHAR edieresis
ENCODING 235
SWIDTH 500 0
DWIDTH 7 0
BBX 6 10 1 0
BITMAP
6C
6C
00
78
CC
CC
FC
C0
C4
78
ENDCHAR

STARTCHAR igrave
ENCODING 236
SWIDTH 333 0
DWIDTH 5 0
BBX 4 10 1 0
BITMAP
C0
20
00
20
E0
60
60
60
60
F0
ENDCHAR

STARTCHAR iacute
ENCODING 237
SWIDTH 333 0
DWIDTH 5 0
BBX 4 10 1 0
BITMAP
30
40
00
20
E0
60
60
60
60
F0
ENDCHAR

STARTCHAR icircumflex
ENCODING 238
SWIDTH 333 0
DWIDTH 5 0
BBX 4 10 1 0
BITMAP
60
90
00
20
E0
60
60
60
60
F0
ENDCHAR

STARTCHAR idieresis
ENCODING 239
SWIDTH 333 0
DWIDTH 5 0
BBX 5 10 0 0
BITMAP
D8
D8
00
10
70
30
30
30
30
78
ENDCHAR

STARTCHAR gbreve
ENCODING 240
SWIDTH 556 0
DWIDTH 8 0
BBX 7 14 1 -4
BITMAP
44
38
00
7A
CC
CC
CC
78
40
7C
C6
C6
C6
7C
ENDCHAR

STARTCHAR ntilde
ENCODING 241
SWIDTH 611 0
DWIDTH 9 0
BBX 8 10 1 0
BITMAP
34
58
00
2C
F6
66
66
66
66
F7
ENDCHAR

STARTCHAR ograve
ENCODING 242
SWIDTH 556 0
DWIDTH 8 0
BBX 7 10 1 0
BITMAP
60
10
00
38
44
C6
C6
C6
44
38
ENDCHAR

STARTCHAR oacute
ENCODING 243
SWIDTH 556 0
DWIDTH 8 0
BBX 7 10 1 0
BITMAP
18
20
00
38
44
C6
C6
C6
44
38
ENDCHAR

STARTCHAR ocircumflex
ENCODING 244
SWIDTH 556 0
DWIDTH 8 0
BBX 7 10 1 0
BITMAP
18
24
00
38
44
C6
C6
C6
44
38
ENDCHAR

STARTCHAR otilde
ENCODING 245
SWIDTH 556 0
DWIDTH 8 0
BBX 7 10 1 0
BITMAP
34
58
00
38
44
C6
C6
C6
44
38
ENDCHAR

STARTCHAR odieresis
ENCODING 246
SWIDTH 556 0
DWIDTH 8 0
BBX 7 10 1 0
BITMAP
6C
6C
00
38
44
C6
C6
C6
44
38
ENDCHAR

STARTCHAR divide
ENCODING 247
SWIDTH 606 0
DWIDTH 8 0
BBX 6 7 1 1
BITMAP
30
30
00
FC
00
30
30
ENDCHAR

STARTCHAR oslash
ENCODING 248
SWIDTH 556 0
DWIDTH 8 0
BBX 7 7 1 0
BITMAP
3A
44
CE
D6
E6
44
B8
ENDCHAR

STARTCHAR ugrave
ENCODING 249
SWIDTH 611 0
DWIDTH 9 0
BBX 8 10 1 0
BITMAP
30
08
00
22
EE
66
66
66
6E
37
ENDCHAR

STARTCHAR uacute
ENCODING 250
SWIDTH 611 0
DWIDTH 9 0
BBX 8 10 1 0
BITMAP
0C
10
00
22
EE
66
66
66
6E
37
ENDCHAR

STARTCHAR ucircumflex
ENCODING 251
SWIDTH 611 0
DWIDTH 9 0
BBX 8 10 1 0
BITMAP
18
24
00
22
EE
66
66
66
6E
37
ENDCHAR

STARTCHAR udieresis
ENCODING 252
SWIDTH 611 0
DWIDTH 9 0
BBX 8 10 1 0
BITMAP
36
36
00
22
EE
66
66
66
6E
37
ENDCHAR

STARTCHAR dotlessi
ENCODING 253
SWIDTH 333 0
DWIDTH 5 0
BBX 4 7 1 0
BITMAP
20
E0
60
60
60
60
F0
ENDCHAR

STARTCHAR scedilla
ENCODING 254
SWIDTH 444 0
DWIDTH 6 0
BBX 5 10 1 -3
BITMAP
78
C8
E0
70
38
98
F0
20
10
60
ENDCHAR

STARTCHAR ydieresis
ENCODING 255
SWIDTH 556 0
DWIDTH 7 0
BBX 8 14 0 -4
BITMAP
36
36
00
F7
62
62
34
34
18
18
18
10
50
60
ENDCHAR
ENDFONT
